<svg width="28" height="24" viewBox="0 0 28 24" fill="none" xmlns="http://www.w3.org/2000/svg">
<path d="M16.14 5.73601C15.9544 5.73601 15.7763 5.80976 15.645 5.94104C15.5138 6.07231 15.44 6.25036 15.44 6.43601V11.828C15.44 12.0137 15.5138 12.1917 15.645 12.323C15.7763 12.4543 15.9544 12.528 16.14 12.528H19.704C19.8897 12.528 20.0677 12.4543 20.199 12.323C20.3303 12.1917 20.404 12.0137 20.404 11.828C20.404 11.6424 20.3303 11.4643 20.199 11.333C20.0677 11.2018 19.8897 11.128 19.704 11.128H16.84V6.43601C16.84 6.25036 16.7663 6.07231 16.635 5.94104C16.5037 5.80976 16.3257 5.73601 16.14 5.73601Z" fill="white" stroke="white" stroke-width="0.6"/>
<path d="M5.01201 11.8277V11.828V14.0477L2.29615 11.3319C2.16456 11.2003 1.9861 11.1264 1.80001 11.1264C1.61393 11.1264 1.43546 11.2003 1.30388 11.3319C1.1723 11.4635 1.09838 11.6419 1.09838 11.828C1.09838 12.0141 1.1723 12.1926 1.30388 12.3241L5.21501 16.2353C5.21518 16.2354 5.21534 16.2356 5.21551 16.2358C5.28048 16.3011 5.35772 16.353 5.44281 16.3885C5.52812 16.424 5.61961 16.4423 5.71201 16.4423C5.80442 16.4423 5.89591 16.424 5.98122 16.3885C6.06629 16.353 6.14352 16.3012 6.20848 16.2358C6.20866 16.2356 6.20884 16.2354 6.20901 16.2353L10.1201 12.3241L10.1283 12.3159L10.1359 12.3071C10.2506 12.1732 10.3105 12.001 10.3037 11.8248C10.2969 11.6486 10.2238 11.4815 10.0992 11.3568C9.97451 11.2322 9.80739 11.1591 9.63122 11.1523C9.45504 11.1455 9.28279 11.2055 9.14888 11.3201L9.14008 11.3277L9.13188 11.3359L6.41601 14.0517V11.828V11.8278C6.41448 9.54927 7.21282 7.3425 8.67178 5.59232C10.1308 3.84215 12.1578 2.65963 14.3994 2.251C16.641 1.84236 18.9549 2.23353 20.9376 3.35629C22.9203 4.47906 24.4459 6.26216 25.2485 8.39466C26.0511 10.5272 26.0797 12.8737 25.3293 15.0251C24.5789 17.1765 23.0971 18.9963 21.1423 20.167C19.1875 21.3377 16.8838 21.7851 14.633 21.4312C12.3822 21.0773 10.327 19.9446 8.82588 18.2306C8.7035 18.0906 8.53051 18.0049 8.34498 17.9925C8.15945 17.98 7.97657 18.0417 7.83657 18.1641C7.69657 18.2865 7.61092 18.4595 7.59847 18.645C7.58601 18.8306 7.64777 19.0134 7.77015 19.1534L7.77019 19.1535C8.99579 20.555 10.5534 21.6265 12.3005 22.2701C14.0475 22.9136 15.9281 23.1085 17.7699 22.837C19.6118 22.5655 21.3561 21.8361 22.8431 20.7158C24.3301 19.5955 25.5122 18.12 26.2813 16.4245C27.0503 14.7289 27.3816 12.8675 27.2449 11.0108C27.1081 9.15402 26.5077 7.36124 25.4987 5.79663C24.4896 4.23203 23.104 2.9456 21.469 2.05519C19.8339 1.16477 18.0016 0.698816 16.1398 0.700002L16.14 0.998985L16.1397 0.700002C13.1894 0.703267 10.361 1.87669 8.27484 3.96283C6.1887 6.04896 5.01528 8.87743 5.01201 11.8277Z" fill="white" stroke="white" stroke-width="0.6"/>
</svg>
