<svg width="25" height="25" viewBox="0 0 25 25" fill="none" xmlns="http://www.w3.org/2000/svg">
<path fill-rule="evenodd" clip-rule="evenodd" d="M15.0718 12.0706L24.3281 2.81531C24.976 2.16741 24.972 1.12938 24.3281 0.484445C23.6832 -0.163456 22.6451 -0.155555 22.0012 0.484445L12.7459 9.73975L3.49055 0.484445C2.84265 -0.163456 1.80463 -0.159505 1.16364 0.484445C0.515744 1.13333 0.519694 2.17037 1.16364 2.81531L10.4199 12.0706L1.16364 21.322C0.515744 21.9699 0.519694 23.0079 1.16364 23.6519C1.80858 24.3008 2.8466 24.2968 3.49055 23.6519L12.7459 14.3966L22.0012 23.6519C22.6491 24.3008 23.6871 24.2968 24.3281 23.6519C24.976 23.004 24.972 21.9659 24.3281 21.322L15.0718 12.0706Z" fill="#DF5252"/>
</svg>
