<svg width="19" height="17" viewBox="0 0 19 17" fill="none" xmlns="http://www.w3.org/2000/svg">
<g opacity="0.6">
<path d="M17.6764 8.71532L17.6765 8.71442C17.6909 8.53031 17.7009 8.31927 17.7036 8.13966C17.7049 8.04982 17.7045 7.9687 17.702 7.9032C17.6993 7.83506 17.6946 7.79138 17.6899 7.77181L17.7871 7.7483M17.6764 8.71532L12.2577 10.1656C12.18 10.2681 12.1538 10.4016 12.1873 10.5266L12.0907 10.5524L12.0907 10.5525L12.8928 13.5565C12.8928 13.5565 12.8928 13.5565 12.8928 13.5565C13.0245 14.05 12.7418 14.6494 12.2816 14.8576L12.2814 14.8577L12.1079 14.9367C12.1079 14.9367 12.1079 14.9367 12.1078 14.9368C11.997 14.9868 11.8794 15.0123 11.7582 15.0123C11.4148 15.0123 11.1024 14.8103 10.962 14.4991L10.9621 14.499L10.9594 14.4937C10.2943 13.2275 9.6124 11.8828 9.0901 10.8025C8.8289 10.2622 8.60796 9.78882 8.44905 9.42472C8.36956 9.24259 8.30599 9.08872 8.26076 8.96797C8.21651 8.84984 8.19286 8.77119 8.18625 8.72972L8.18677 2.88453V2.88452C8.18677 2.25124 8.69719 1.73719 9.32269 1.73719H14.6102C14.6727 1.77366 14.7565 1.8465 14.8593 1.95961C14.971 2.08256 15.0984 2.24551 15.2366 2.44188C15.5127 2.83445 15.8279 3.35493 16.1423 3.943C16.7715 5.12001 17.3925 6.55863 17.69 7.77211L17.7871 7.7483M17.6764 8.71532C17.6756 8.72789 17.6749 8.74138 17.6749 8.75525C17.6749 9.38877 17.1642 9.90258 16.539 9.90258H12.5847C12.4253 9.90258 12.2748 9.97732 12.178 10.1053L17.6764 8.71532ZM17.7871 7.7483C17.8165 7.86968 17.8053 8.34995 17.7762 8.72221L17.7871 7.7483ZM18.6838 7.52479L18.6838 7.52474C18.4317 6.49602 17.8008 4.90219 17.0776 3.51849C16.7157 2.82627 16.329 2.18319 15.9526 1.68796C15.7645 1.44036 15.5775 1.22777 15.396 1.06407C15.2155 0.901267 15.0348 0.781676 14.8589 0.728062L14.8298 0.823717L14.8593 0.728173C14.811 0.713252 14.7605 0.706152 14.7111 0.706152H9.32269C8.13068 0.706152 7.16282 1.68454 7.16282 2.88479V8.75603C7.16282 8.84904 7.19584 8.98352 7.24704 9.14119C7.29944 9.30256 7.37496 9.49994 7.46807 9.72406C7.65438 10.1725 7.91349 10.7336 8.20543 11.3381C8.78895 12.5465 9.50603 13.9334 10.0417 14.9524C10.3383 15.6079 11.0156 16.0446 11.7579 16.0446C12.025 16.0446 12.284 15.9883 12.5279 15.8776L12.7015 15.7987C13.6139 15.3861 14.1412 14.2626 13.8814 13.2891L13.8814 13.2891L13.2529 10.9344H16.539C17.7238 10.9344 18.6872 9.96807 18.6988 8.77765C18.7079 8.66015 18.7232 8.4296 18.7272 8.18963C18.7312 7.951 18.7243 7.69033 18.6838 7.52479Z" fill="#615244" stroke="#615244" stroke-width="0.2"/>
<path d="M1.92369 1.86299H4.47632V9.77675H1.92369V1.86299ZM4.98856 0.831427H1.41197C1.12837 0.831427 0.9 1.0629 0.9 1.34721V10.2925C0.9 10.5763 1.12859 10.8083 1.41197 10.8083H4.9883C5.27198 10.8083 5.50027 10.5762 5.50027 10.2925V1.34721C5.50027 1.06294 5.27194 0.831427 4.98856 0.831427Z" fill="#615244" stroke="#615244" stroke-width="0.2"/>
</g>
</svg>
