<svg width="19" height="17" viewBox="0 0 19 17" fill="none" xmlns="http://www.w3.org/2000/svg">
<g opacity="0.6">
<path d="M18.3642 9.22562L18.3642 9.22556C18.4039 9.06026 18.4107 8.7998 18.4068 8.56117C18.4029 8.3212 18.3878 8.09066 18.3789 7.9732C18.3675 6.78445 17.4226 5.81636 16.2565 5.81636L13.0319 5.81636L13.6491 3.46119L13.6491 3.46118C13.9038 2.48916 13.3873 1.36557 12.4903 0.952378L18.3642 9.22562ZM18.3642 9.22562C18.1167 10.2542 17.4974 11.8479 16.7873 13.2316C16.432 13.9238 16.0523 14.5669 15.6828 15.0621C15.4981 15.3097 15.3144 15.5223 15.1362 15.6861C14.959 15.8489 14.7813 15.9688 14.608 16.0225L14.5784 15.927L14.6084 16.0224C14.5606 16.0375 14.5107 16.0446 14.4618 16.0446H9.17136C7.99828 16.0446 7.04893 15.0645 7.04893 13.866L7.04893 7.99473C7.04893 7.90203 7.08126 7.76778 7.13154 7.61009C7.18298 7.44876 7.25711 7.25141 7.34852 7.0273C7.53144 6.57886 7.78583 6.01781 8.07246 5.41327C8.64538 4.20493 9.34942 2.81803 9.87532 1.79897C10.1664 1.14384 10.8318 0.706153 11.5623 0.706153C11.8251 0.706153 12.0799 0.762576 12.3197 0.873469L12.4901 0.952312L18.3642 9.22562ZM17.3715 8.0362L17.3715 8.03532C17.3706 8.02277 17.37 8.00933 17.37 7.99552C17.37 7.36025 16.8677 6.84818 16.2565 6.84818L12.3741 6.84818C12.2162 6.84818 12.0678 6.77277 11.9727 6.64474C11.8782 6.51766 11.8466 6.35289 11.8872 6.19869L12.6747 3.19474C12.6747 3.19474 12.6747 3.19473 12.6747 3.19473C12.7387 2.95032 12.7037 2.67678 12.5925 2.43611C12.4814 2.19535 12.2979 1.99555 12.0752 1.8929L12.0749 1.89279L11.9046 1.81376C11.9046 1.81374 11.9045 1.81372 11.9045 1.8137C11.7961 1.76386 11.6811 1.7385 11.5626 1.7385C11.2272 1.7385 10.9209 1.93946 10.7828 2.25103L10.783 2.2511L10.7803 2.25636C10.1272 3.52262 9.45776 4.86732 8.94494 5.94764C8.68849 6.4879 8.47156 6.96131 8.31553 7.32543C8.23748 7.50757 8.17506 7.66146 8.13064 7.78223C8.08716 7.90045 8.06388 7.97927 8.05739 8.0209L8.0579 13.8662V13.8662C8.0579 14.5013 8.55997 15.0136 9.17136 15.0136L14.3619 15.0136C14.4228 14.9771 14.5048 14.9046 14.6054 14.7918C14.7151 14.6689 14.8401 14.506 14.9758 14.3096C15.2469 13.917 15.5564 13.3965 15.8651 12.8084C16.4828 11.6315 17.0926 10.1929 17.3847 8.97936C17.3894 8.95961 17.3939 8.91577 17.3965 8.84763C17.399 8.78209 17.3995 8.70094 17.3981 8.61108C17.3955 8.43143 17.3857 8.22035 17.3715 8.0362Z" fill="#615244" stroke="#615244" stroke-width="0.2"/>
<path d="M1.90872 14.8877H4.41134L4.41134 6.97404H1.90872L1.90872 14.8877ZM4.91608 15.9193H1.40449C1.12331 15.9193 0.9 15.6861 0.9 15.4035L0.9 6.45826C0.9 6.17626 1.12353 5.94248 1.40449 5.94248H4.91583C5.19708 5.94248 5.42031 6.1763 5.42031 6.45826L5.42031 15.4035C5.42031 15.6861 5.19704 15.9193 4.91608 15.9193Z" fill="#615244" stroke="#615244" stroke-width="0.2"/>
</g>
</svg>
